<mxfile host="65bd71144e">
    <diagram id="oSIQqzqPlRC4vWWSm2Cj" name="Page-1">
        <mxGraphModel dx="1562" dy="826" grid="1" gridSize="10" guides="1" tooltips="1" connect="1" arrows="1" fold="1" page="1" pageScale="1" pageWidth="800" pageHeight="600" background="#ffffff" math="0" shadow="0">
            <root>
                <mxCell id="0"/>
                <mxCell id="1" parent="0"/>
                <mxCell id="10" value="" style="whiteSpace=wrap;html=1;aspect=fixed;fillColor=#a20025;fontColor=#ffffff;strokeColor=#000000;" vertex="1" parent="1">
                    <mxGeometry x="40" y="40" width="80" height="80" as="geometry"/>
                </mxCell>
                <mxCell id="11" value="" style="whiteSpace=wrap;html=1;aspect=fixed;fillColor=#D10030;fontColor=#ffffff;strokeColor=#000000;" vertex="1" parent="1">
                    <mxGeometry x="50" y="50" width="80" height="80" as="geometry"/>
                </mxCell>
                <mxCell id="13" value="" style="whiteSpace=wrap;html=1;aspect=fixed;fillColor=#E30034;fontColor=#ffffff;strokeColor=#000000;" vertex="1" parent="1">
                    <mxGeometry x="60" y="60" width="80" height="80" as="geometry"/>
                </mxCell>
                <mxCell id="50" style="edgeStyle=none;html=1;exitX=1;exitY=1;exitDx=0;exitDy=0;endArrow=classic;endFill=1;entryX=0;entryY=0;entryDx=0;entryDy=30.39684963679536;entryPerimeter=0;" edge="1" parent="1" source="14" target="44">
                    <mxGeometry relative="1" as="geometry">
                        <mxPoint x="220" y="190" as="targetPoint"/>
                    </mxGeometry>
                </mxCell>
                <mxCell id="51" style="edgeStyle=none;html=1;exitX=1;exitY=1;exitDx=0;exitDy=0;entryX=0;entryY=0;entryDx=0;entryDy=9.60315036320464;entryPerimeter=0;endArrow=classic;endFill=1;" edge="1" parent="1" source="14" target="33">
                    <mxGeometry relative="1" as="geometry"/>
                </mxCell>
                <mxCell id="56" style="edgeStyle=none;html=1;exitX=1;exitY=1;exitDx=0;exitDy=0;entryX=0.5;entryY=1;entryDx=0;entryDy=0;entryPerimeter=0;endArrow=classic;endFill=1;" edge="1" parent="1" source="14" target="55">
                    <mxGeometry relative="1" as="geometry"/>
                </mxCell>
                <mxCell id="83" style="edgeStyle=none;html=1;exitX=1;exitY=1;exitDx=0;exitDy=0;entryX=0;entryY=0;entryDx=0;entryDy=30.39684963679536;entryPerimeter=0;startArrow=none;startFill=0;endArrow=none;endFill=0;curved=1;" edge="1" parent="1" source="14" target="72">
                    <mxGeometry relative="1" as="geometry">
                        <Array as="points">
                            <mxPoint x="210" y="260"/>
                            <mxPoint x="240" y="300"/>
                            <mxPoint x="270" y="320"/>
                            <mxPoint x="310" y="300"/>
                        </Array>
                    </mxGeometry>
                </mxCell>
                <mxCell id="84" style="edgeStyle=none;html=1;exitX=1;exitY=1;exitDx=0;exitDy=0;startArrow=none;startFill=0;endArrow=none;endFill=0;entryX=0;entryY=0;entryDx=0;entryDy=30.39684963679536;entryPerimeter=0;curved=1;" edge="1" parent="1" source="14" target="78">
                    <mxGeometry relative="1" as="geometry">
                        <mxPoint x="320" y="400" as="targetPoint"/>
                        <Array as="points">
                            <mxPoint x="230" y="300"/>
                            <mxPoint x="330" y="430"/>
                            <mxPoint x="390" y="450"/>
                            <mxPoint x="420" y="430"/>
                        </Array>
                    </mxGeometry>
                </mxCell>
                <mxCell id="92" style="edgeStyle=none;curved=1;html=1;exitX=1;exitY=1;exitDx=0;exitDy=0;startArrow=none;startFill=0;endArrow=none;endFill=0;" edge="1" parent="1" source="14">
                    <mxGeometry relative="1" as="geometry">
                        <mxPoint x="530" y="570" as="targetPoint"/>
                        <Array as="points">
                            <mxPoint x="360" y="540"/>
                            <mxPoint x="460" y="580"/>
                            <mxPoint x="510" y="560"/>
                            <mxPoint x="520" y="560"/>
                        </Array>
                    </mxGeometry>
                </mxCell>
                <mxCell id="14" value="" style="whiteSpace=wrap;html=1;aspect=fixed;fillColor=#FF003A;strokeColor=#000000;fontColor=#ffffff;" vertex="1" parent="1">
                    <mxGeometry x="70" y="70" width="80" height="80" as="geometry"/>
                </mxCell>
                <mxCell id="32" value="Input" style="text;html=1;align=center;verticalAlign=middle;resizable=0;points=[];autosize=1;strokeColor=none;fillColor=none;" vertex="1" parent="1">
                    <mxGeometry x="60" y="20" width="40" height="20" as="geometry"/>
                </mxCell>
                <mxCell id="38" value="" style="group;rotation=75;direction=east;" vertex="1" connectable="0" parent="1">
                    <mxGeometry x="110" y="250" width="80" height="60" as="geometry"/>
                </mxCell>
                <mxCell id="37" value="" style="whiteSpace=wrap;html=1;shape=mxgraph.basic.isocube;isoAngle=15;strokeColor=#6F0000;fillColor=#a20025;fontColor=#ffffff;gradientColor=#ffffff;rotation=75;" vertex="1" parent="38">
                    <mxGeometry x="34" y="27" width="40" height="40" as="geometry"/>
                </mxCell>
                <mxCell id="34" value="" style="whiteSpace=wrap;html=1;shape=mxgraph.basic.isocube;isoAngle=15;strokeColor=#6F0000;fillColor=#a20025;fontColor=#ffffff;gradientColor=#ffffff;rotation=75;" vertex="1" parent="38">
                    <mxGeometry x="20" y="10" width="40" height="40" as="geometry"/>
                </mxCell>
                <mxCell id="33" value="" style="whiteSpace=wrap;html=1;shape=mxgraph.basic.isocube;isoAngle=15;strokeColor=#6F0000;fillColor=#a20025;fontColor=#ffffff;gradientColor=#ffffff;rotation=75;" vertex="1" parent="38">
                    <mxGeometry x="6" y="-7" width="40" height="40" as="geometry"/>
                </mxCell>
                <mxCell id="48" value="" style="group" vertex="1" connectable="0" parent="1">
                    <mxGeometry x="219.99510257216824" y="178.50510257216823" width="76.98979485566358" height="82.98979485566358" as="geometry"/>
                </mxCell>
                <mxCell id="44" value="" style="whiteSpace=wrap;html=1;shape=mxgraph.basic.isocube;isoAngle=15;strokeColor=#006EAF;fillColor=#1ba1e2;fontColor=#ffffff;rotation=75;gradientColor=#ffffff;" vertex="1" parent="48">
                    <mxGeometry x="4.4948974278317735" y="4.4948974278317735" width="40" height="40" as="geometry"/>
                </mxCell>
                <mxCell id="53" value="1x1 Convolution" style="text;html=1;align=center;verticalAlign=middle;resizable=0;points=[];autosize=1;strokeColor=none;fillColor=none;rotation=50;" vertex="1" parent="48">
                    <mxGeometry x="-55.505102572168234" y="24.494897427831773" width="100" height="20" as="geometry"/>
                </mxCell>
                <mxCell id="49" value="" style="group" vertex="1" connectable="0" parent="1">
                    <mxGeometry x="389.9951025721682" y="189.99510257216824" width="76.9897948556636" height="82.98979485566355" as="geometry"/>
                </mxCell>
                <mxCell id="45" value="" style="whiteSpace=wrap;html=1;shape=mxgraph.basic.isocube;isoAngle=15;strokeColor=#3700CC;fillColor=#6a00ff;fontColor=#ffffff;rotation=75;gradientColor=#ffffff;" vertex="1" parent="49">
                    <mxGeometry x="32.4948974278318" y="38.49489742783177" width="40" height="40" as="geometry"/>
                </mxCell>
                <mxCell id="46" value="" style="whiteSpace=wrap;html=1;shape=mxgraph.basic.isocube;isoAngle=15;strokeColor=#3700CC;fillColor=#6a00ff;fontColor=#ffffff;rotation=75;gradientColor=#ffffff;" vertex="1" parent="49">
                    <mxGeometry x="18.494897427831802" y="21.494897427831773" width="40" height="40" as="geometry"/>
                </mxCell>
                <mxCell id="47" value="" style="whiteSpace=wrap;html=1;shape=mxgraph.basic.isocube;isoAngle=15;strokeColor=#3700CC;fillColor=#6a00ff;fontColor=#ffffff;rotation=75;gradientColor=#ffffff;" vertex="1" parent="49">
                    <mxGeometry x="4.494897427831802" y="4.4948974278317735" width="40" height="40" as="geometry"/>
                </mxCell>
                <mxCell id="54" value="3x3 AvgPool" style="text;html=1;align=center;verticalAlign=middle;resizable=0;points=[];autosize=1;strokeColor=none;fillColor=none;" vertex="1" parent="1">
                    <mxGeometry x="380" y="130" width="80" height="20" as="geometry"/>
                </mxCell>
                <mxCell id="57" style="edgeStyle=none;html=1;exitX=0.5;exitY=0;exitDx=0;exitDy=0;exitPerimeter=0;entryX=0;entryY=0;entryDx=0;entryDy=30.39684963679536;entryPerimeter=0;endArrow=classic;endFill=1;" edge="1" parent="1" source="55" target="47">
                    <mxGeometry relative="1" as="geometry"/>
                </mxCell>
                <mxCell id="55" value="" style="whiteSpace=wrap;html=1;shape=mxgraph.basic.isocube;isoAngle=15;strokeColor=#3700CC;fillColor=#6a00ff;fontColor=#ffffff;gradientColor=#ffffff;rotation=-240;gradientDirection=north;" vertex="1" parent="1">
                    <mxGeometry x="302" y="130" width="98.49" height="60" as="geometry"/>
                </mxCell>
                <mxCell id="58" value="1x1 Convolution" style="text;html=1;align=center;verticalAlign=middle;resizable=0;points=[];autosize=1;strokeColor=none;fillColor=none;" vertex="1" parent="1">
                    <mxGeometry x="440" y="200" width="100" height="20" as="geometry"/>
                </mxCell>
                <mxCell id="62" value="" style="whiteSpace=wrap;html=1;shape=mxgraph.basic.isocube;isoAngle=15;strokeColor=#006EAF;fillColor=#1ba1e2;fontColor=#ffffff;rotation=-240;gradientDirection=north;gradientColor=#ffffff;" vertex="1" parent="1">
                    <mxGeometry x="240" y="230" width="98.49" height="60" as="geometry"/>
                </mxCell>
                <mxCell id="40" value="1x1 Convolution" style="text;html=1;align=center;verticalAlign=middle;resizable=0;points=[];autosize=1;strokeColor=none;fillColor=none;rotation=50;" vertex="1" parent="1">
                    <mxGeometry x="70" y="290" width="100" height="20" as="geometry"/>
                </mxCell>
                <mxCell id="63" value="3x3 Convolution" style="text;html=1;align=center;verticalAlign=middle;resizable=0;points=[];autosize=1;strokeColor=none;fillColor=none;rotation=0;" vertex="1" parent="1">
                    <mxGeometry x="310" y="270" width="100" height="20" as="geometry"/>
                </mxCell>
                <mxCell id="65" style="edgeStyle=none;html=1;exitX=0;exitY=0;exitDx=40;exitDy=9.60315036320464;exitPerimeter=0;entryX=0.363;entryY=0.897;entryDx=0;entryDy=0;entryPerimeter=0;endArrow=classic;endFill=1;" edge="1" parent="1" source="44" target="62">
                    <mxGeometry relative="1" as="geometry"/>
                </mxCell>
                <mxCell id="74" value="" style="whiteSpace=wrap;html=1;shape=mxgraph.basic.isocube;isoAngle=15;strokeColor=#C73500;fillColor=#fa6800;fontColor=#000000;rotation=-240;gradientDirection=north;gradientColor=#ffffff;" vertex="1" parent="1">
                    <mxGeometry x="335.51" y="357" width="98.49" height="60" as="geometry"/>
                </mxCell>
                <mxCell id="75" style="edgeStyle=none;html=1;exitX=0;exitY=0;exitDx=40;exitDy=9.60315036320464;exitPerimeter=0;entryX=0.363;entryY=0.897;entryDx=0;entryDy=0;entryPerimeter=0;endArrow=classic;endFill=1;" edge="1" parent="1" source="72" target="74">
                    <mxGeometry relative="1" as="geometry"/>
                </mxCell>
                <mxCell id="80" style="edgeStyle=none;html=1;exitX=0;exitY=0;exitDx=0;exitDy=30.39684963679536;exitPerimeter=0;entryX=0.677;entryY=0.131;entryDx=0;entryDy=0;entryPerimeter=0;endArrow=none;endFill=0;startArrow=classic;startFill=1;" edge="1" parent="1" source="72" target="62">
                    <mxGeometry relative="1" as="geometry"/>
                </mxCell>
                <mxCell id="72" value="" style="whiteSpace=wrap;html=1;shape=mxgraph.basic.isocube;isoAngle=15;strokeColor=#C73500;fillColor=#fa6800;fontColor=#000000;rotation=75;gradientColor=#ffffff;" vertex="1" parent="1">
                    <mxGeometry x="320" y="310" width="40" height="40" as="geometry"/>
                </mxCell>
                <mxCell id="76" value="" style="whiteSpace=wrap;html=1;shape=mxgraph.basic.isocube;isoAngle=15;strokeColor=#BD7000;fillColor=#f0a30a;fontColor=#000000;rotation=-240;gradientDirection=north;gradientColor=#ffffff;" vertex="1" parent="1">
                    <mxGeometry x="441.51" y="487" width="98.49" height="60" as="geometry"/>
                </mxCell>
                <mxCell id="77" style="edgeStyle=none;html=1;exitX=0;exitY=0;exitDx=40;exitDy=9.60315036320464;exitPerimeter=0;entryX=0.363;entryY=0.897;entryDx=0;entryDy=0;entryPerimeter=0;endArrow=classic;endFill=1;" edge="1" parent="1" source="78" target="76">
                    <mxGeometry relative="1" as="geometry"/>
                </mxCell>
                <mxCell id="82" style="edgeStyle=none;html=1;exitX=0;exitY=0;exitDx=0;exitDy=30.39684963679536;exitPerimeter=0;entryX=0.627;entryY=0.104;entryDx=0;entryDy=0;entryPerimeter=0;startArrow=classic;startFill=1;endArrow=none;endFill=0;" edge="1" parent="1" source="78" target="74">
                    <mxGeometry relative="1" as="geometry"/>
                </mxCell>
                <mxCell id="78" value="" style="whiteSpace=wrap;html=1;shape=mxgraph.basic.isocube;isoAngle=15;strokeColor=#BD7000;fillColor=#f0a30a;fontColor=#000000;rotation=75;gradientColor=#ffffff;" vertex="1" parent="1">
                    <mxGeometry x="426" y="440" width="40" height="40" as="geometry"/>
                </mxCell>
                <mxCell id="89" value="" style="group" vertex="1" connectable="0" parent="1">
                    <mxGeometry x="530" y="570" width="110" height="110" as="geometry"/>
                </mxCell>
                <mxCell id="85" value="" style="whiteSpace=wrap;html=1;aspect=fixed;fillColor=#0037A6;fontColor=#ffffff;strokeColor=#000000;" vertex="1" parent="89">
                    <mxGeometry width="80" height="80" as="geometry"/>
                </mxCell>
                <mxCell id="86" value="" style="whiteSpace=wrap;html=1;aspect=fixed;fillColor=#0045D1;fontColor=#ffffff;strokeColor=#000000;" vertex="1" parent="89">
                    <mxGeometry x="10" y="10" width="80" height="80" as="geometry"/>
                </mxCell>
                <mxCell id="87" value="" style="whiteSpace=wrap;html=1;aspect=fixed;fillColor=#0055FF;fontColor=#ffffff;strokeColor=#000000;" vertex="1" parent="89">
                    <mxGeometry x="20" y="20" width="80" height="80" as="geometry"/>
                </mxCell>
                <mxCell id="88" value="" style="whiteSpace=wrap;html=1;aspect=fixed;fillColor=#0066FF;strokeColor=#000000;fontColor=#ffffff;" vertex="1" parent="89">
                    <mxGeometry x="30" y="30" width="80" height="80" as="geometry"/>
                </mxCell>
                <mxCell id="90" value="Output" style="text;html=1;align=center;verticalAlign=middle;resizable=0;points=[];autosize=1;strokeColor=none;fillColor=none;" vertex="1" parent="1">
                    <mxGeometry x="640" y="615" width="50" height="20" as="geometry"/>
                </mxCell>
                <mxCell id="91" style="edgeStyle=none;html=1;exitX=0;exitY=0;exitDx=40;exitDy=9.60315036320464;exitPerimeter=0;entryX=0;entryY=0;entryDx=0;entryDy=0;startArrow=none;startFill=0;endArrow=none;endFill=0;curved=1;" edge="1" parent="1" source="37" target="85">
                    <mxGeometry relative="1" as="geometry">
                        <Array as="points">
                            <mxPoint x="240" y="390"/>
                            <mxPoint x="380" y="580"/>
                            <mxPoint x="480" y="580"/>
                            <mxPoint x="510" y="560"/>
                            <mxPoint x="520" y="560"/>
                        </Array>
                    </mxGeometry>
                </mxCell>
                <mxCell id="93" style="edgeStyle=none;curved=1;html=1;exitX=0;exitY=0;exitDx=0;exitDy=0;entryX=0.689;entryY=0.151;entryDx=0;entryDy=0;entryPerimeter=0;startArrow=classic;startFill=1;endArrow=none;endFill=0;" edge="1" parent="1" source="85" target="76">
                    <mxGeometry relative="1" as="geometry"/>
                </mxCell>
                <mxCell id="94" style="edgeStyle=none;curved=1;html=1;exitX=0;exitY=0;exitDx=40;exitDy=9.60315036320464;exitPerimeter=0;entryX=0;entryY=0;entryDx=0;entryDy=0;startArrow=none;startFill=0;endArrow=none;endFill=0;" edge="1" parent="1" source="45" target="85">
                    <mxGeometry relative="1" as="geometry">
                        <Array as="points">
                            <mxPoint x="540" y="410"/>
                        </Array>
                    </mxGeometry>
                </mxCell>
            </root>
        </mxGraphModel>
    </diagram>
</mxfile>